<?xml version="1.0" encoding="UTF-8"?>
<svg width="24px" height="24px" viewBox="0 0 24 24" version="1.1" xmlns="http://www.w3.org/2000/svg" xmlns:xlink="http://www.w3.org/1999/xlink">
    <!-- Generator: Sketch 64 (93537) - https://sketch.com -->
    <title>Atoms / Icons / Home</title>
    <desc>Created with Sketch.</desc>
    <g id="Atoms-/-Icons-/-Home" stroke="none" stroke-width="1" fill="none" fill-rule="evenodd">
        <path d="M15.9999243,19.1985124 L14.3999546,19.1985124 C13.5175713,19.1985124 12.7999849,18.4817259 12.7999849,17.5985426 L12.7999849,15.1985881 L11.2000151,15.1985881 L11.2000151,17.5985426 C11.2000151,18.4817259 10.4824287,19.1985124 9.60004542,19.1985124 L8.0000757,19.1985124 C7.1176924,19.1985124 6.40010598,18.4817259 6.40010598,17.5985426 L6.40010598,12.7986335 L4.80013626,12.7986335 C4.47694238,12.7986335 4.18494791,12.6042372 4.06095025,12.3050428 C3.9369526,12.0066485 4.0057513,11.662655 4.23454697,11.4338593 L11.4344107,4.23399557 C11.7472048,3.92200148 12.2527952,3.92200148 12.5655893,4.23399557 L19.765453,11.4338593 C19.9942487,11.662655 20.0630474,12.0066485 19.9390497,12.3050428 C19.8150521,12.6042372 19.5230576,12.7986335 19.1998637,12.7986335 L17.599894,12.7986335 L17.599894,17.5985426 C17.599894,18.4809259 16.8823076,19.1985124 15.9999243,19.1985124 Z M10.4000303,13.5986183 L13.5999697,13.5986183 C14.0415614,13.5986183 14.3999546,13.9578115 14.3999546,14.3986032 L14.3999546,17.5985426 L16.0007243,17.5985426 L15.9999243,11.9986486 C15.9999243,11.557857 16.3583175,11.1986638 16.7999092,11.1986638 L17.2687003,11.1986638 L12,5.93076346 L6.73129971,11.1986638 L7.20009084,11.1986638 C7.64168248,11.1986638 8.0000757,11.557857 8.0000757,11.9986486 L8.0000757,17.5985426 L9.60004542,17.5985426 L9.60004542,14.3986032 C9.60004542,13.9570116 9.95763865,13.5986183 10.4000303,13.5986183 Z" id="Color" fill="#497B7B"></path>
    </g>
</svg>