<?xml version="1.0" encoding="UTF-8"?>
<svg width="24px" height="24px" viewBox="0 0 24 24" version="1.1" xmlns="http://www.w3.org/2000/svg" xmlns:xlink="http://www.w3.org/1999/xlink">
    <!-- Generator: Sketch 64 (93537) - https://sketch.com -->
    <title>Atoms / Icons / Checkbox</title>
    <desc>Created with Sketch.</desc>
    <defs>
        <path d="M19,3 C20.103,3 21,3.897 21,5 L21,19 C21,20.103 20.103,21 19,21 L5,21 C3.897,21 3,20.103 3,19 L3,5 C3,3.897 3.897,3 5,3 L19,3 Z M19,4 L5,4 C4.44771525,4 4,4.44771525 4,5 L4,5 L4,19 C4,19.5522847 4.44771525,20 5,20 L5,20 L19,20 C19.5522847,20 20,19.5522847 20,19 L20,19 L20,5 C20,4.44771525 19.5522847,4 19,4 L19,4 Z" id="path-1"></path>
    </defs>
    <g id="Atoms-/-Icons-/-Checkbox" stroke="none" stroke-width="1" fill="none" fill-rule="evenodd">
        <mask id="mask-2" fill="white">
            <use xlink:href="#path-1"></use>
        </mask>
        <use id="↳-🎨Color" fill="#497B7B" xlink:href="#path-1"></use>
    </g>
</svg>