<?xml version="1.0" encoding="UTF-8"?>
<svg width="24px" height="24px" viewBox="0 0 24 24" version="1.1" xmlns="http://www.w3.org/2000/svg" xmlns:xlink="http://www.w3.org/1999/xlink">
    <!-- Generator: Sketch 64 (93537) - https://sketch.com -->
    <title>Atoms / Icons / Highlight</title>
    <desc>Created with Sketch.</desc>
    <g id="Atoms-/-Icons-/-Highlight" stroke="none" stroke-width="1" fill="none" fill-rule="evenodd">
        <path d="M20.8421053,18.3157895 L20.8421053,20 L14.1052632,20 L14.1052632,18.3157895 L20.8421053,18.3157895 Z M7.65305263,15.5991579 L9.94526316,17.8905263 L8.67789474,19.1578947 L4.09347368,19.1578947 L7.65305263,15.5991579 Z M16.2248421,4.96252632 C16.7730526,4.40757895 17.9258947,4.36631579 18.5625263,5.00378947 L18.5625263,5.00378947 L20.3486316,6.79073684 C20.6669474,7.10905263 20.8421053,7.53263158 20.8421053,7.98231579 C20.8421053,8.432 20.6669474,8.85557895 20.3477895,9.17221053 L20.3477895,9.17221053 L12.0564211,18.7427368 L6.60884211,13.2968421 Z M17.3709474,6.19452632 L9.07789474,13.3835789 L11.968,16.2736842 L19.1157895,8.02357895 L17.3709474,6.19452632 Z" id="Color" fill="#497B7B"></path>
    </g>
</svg>