<?xml version="1.0" encoding="UTF-8"?>
<svg width="24px" height="24px" viewBox="0 0 24 24" version="1.1" xmlns="http://www.w3.org/2000/svg" xmlns:xlink="http://www.w3.org/1999/xlink">
    <!-- Generator: Sketch 64 (93537) - https://sketch.com -->
    <title>Atoms/Icons/Label</title>
    <desc>Created with Sketch.</desc>
    <defs>
        <path d="M5.6,10.06872 L13.6,18.06872 L18.0688,13.59992 L10.0688,5.59992 L5.6,5.59992 L5.6,10.06872 Z M10.4,3.99992 C10.612,3.99992 10.816,4.08472 10.9656,4.23432 L19.7656,13.03432 C20.0784,13.34712 20.0784,13.85272 19.7656,14.16552 L14.1656,19.76552 C14.0096,19.92152 13.8048,19.99992 13.6,19.99992 C13.3952,19.99992 13.1904,19.92152 13.0344,19.76552 L4.2344,10.96552 C4.084,10.81592 4,10.61192 4,10.39992 L4,4.79992 C4,4.35832 4.3584,3.99992 4.8,3.99992 L10.4,3.99992 Z M8,6.4 C7.116,6.4 6.4,7.116 6.4,8 C6.4,8.8832 7.116,9.6 8,9.6 C8.8832,9.6 9.6,8.8832 9.6,8 C9.6,7.116 8.8832,6.4 8,6.4 Z" id="path-1"></path>
    </defs>
    <g id="Atoms/Icons/Label" stroke="none" stroke-width="1" fill="none" fill-rule="evenodd">
        <mask id="mask-2" fill="white">
            <use xlink:href="#path-1"></use>
        </mask>
        <use id="↳-🎨Color" fill="#497B7B" xlink:href="#path-1"></use>
    </g>
</svg>