<?xml version="1.0" encoding="UTF-8"?>
<svg width="24px" height="24px" viewBox="0 0 24 24" version="1.1" xmlns="http://www.w3.org/2000/svg" xmlns:xlink="http://www.w3.org/1999/xlink">
    <!-- Generator: Sketch 64 (93537) - https://sketch.com -->
    <title>Atoms / Icons / Lightning</title>
    <desc>Created with Sketch.</desc>
    <defs>
        <path d="M8.46441088,12.0000447 L11.5995934,12.0000447 C12.0419909,12.0000447 12.3995889,12.3584427 12.3995889,12.8000403 L12.3995889,16.9200172 L16.3355669,12.0000447 L13.1995844,12.0000447 C12.7579869,12.0000447 12.3995889,11.6416467 12.3995889,11.2000492 L12.3995889,7.08087225 L8.46441088,12.0000447 Z M11.5995934,20 C11.5115938,20 11.4219943,19.9856001 11.3347948,19.9544003 C11.0147966,19.8424009 10.7995978,19.5400026 10.7995978,19.2000045 L10.7995978,13.6000358 L6.79962019,13.6000358 C6.49242191,13.6000358 6.21162348,13.4232368 6.07882422,13.1464383 C5.94602497,12.8696399 5.98282476,12.5416417 6.17562368,12.3000431 L12.5755879,4.3000878 C12.7875867,4.03528928 13.1443847,3.93208985 13.4651829,4.04568922 C13.7851811,4.15768859 13.9995799,4.4600869 13.9995799,4.800085 L13.9995799,10.4000537 L17.9995576,10.4000537 C18.3075558,10.4000537 18.5875543,10.5768527 18.7211535,10.8536511 C18.8539528,11.1304496 18.816353,11.4592478 18.6243541,11.7000464 L12.2243899,19.7000017 C12.0699907,19.8936006 11.837992,20 11.5995934,20 L11.5995934,20 Z" id="path-1"></path>
    </defs>
    <g id="Atoms-/-Icons-/-Lightning" stroke="none" stroke-width="1" fill="none" fill-rule="evenodd">
        <mask id="mask-2" fill="white">
            <use xlink:href="#path-1"></use>
        </mask>
        <use id="↳-🎨Color" fill="#497B7B" xlink:href="#path-1"></use>
    </g>
</svg>