<?xml version="1.0" encoding="UTF-8"?>
<svg width="24px" height="24px" viewBox="0 0 24 24" version="1.1" xmlns="http://www.w3.org/2000/svg" xmlns:xlink="http://www.w3.org/1999/xlink">
    <!-- Generator: Sketch 64 (93537) - https://sketch.com -->
    <title>Atoms/Icons/Documents</title>
    <desc>Created with Sketch.</desc>
    <g id="Atoms/Icons/Documents" stroke="none" stroke-width="1" fill="none" fill-rule="evenodd">
        <path d="M9.6,4 C10.0424,4 10.4,4.3584 10.4,4.8 L10.4,4.8 L10.4,7.2 L13.6,7.2 L13.6,6.4 C13.6,5.9584 13.9576,5.6 14.4,5.6 L14.4,5.6 L19.2,5.6 C19.6424,5.6 20,5.9592 20,6.4 L20,6.4 L20,19.2 C20,19.6416 19.6424,20 19.2,20 L19.2,20 L4.8,20 C4.3576,20 4,19.6416 4,19.2 L4,19.2 L4,4.8 C4,4.3592 4.3576,4 4.8,4 L4.8,4 Z M8.8,5.6 L5.6,5.6 L5.6,18.4 L8.8,18.4 L8.8,5.6 Z M13.6,8.8 L10.4,8.8 L10.4,18.4 L13.6,18.4 L13.6,8.8 Z M18.4,7.2 L15.2,7.2 L15.2,18.4 L18.4,18.4 L18.4,7.2 Z M12.8,9.6 L12.8,14.4 L11.2,14.4 L11.2,9.6 L12.8,9.6 Z M17.6,8 L17.6,13.6 L16,13.6 L16,8 L17.6,8 Z M8,6.4 L8,12.8 L6.4,12.8 L6.4,6.4 L8,6.4 Z" id="Color" fill="#497B7B"></path>
    </g>
</svg>