<?xml version="1.0" encoding="UTF-8"?>
<svg width="24px" height="24px" viewBox="0 0 24 24" version="1.1" xmlns="http://www.w3.org/2000/svg" xmlns:xlink="http://www.w3.org/1999/xlink">
    <!-- Generator: Sketch 64 (93537) - https://sketch.com -->
    <title>Atoms / Icons / Edit</title>
    <desc>Created with Sketch.</desc>
    <defs>
        <path d="M19.056471,4.94317096 C18.4484897,4.3343897 17.6389147,4 16.7789411,4 C15.9197676,4 15.1101925,4.3343897 14.5022112,4.94317096 L5.3752923,14.0692899 C5.3752923,14.0692899 5.37449233,14.0716898 5.37289238,14.0724898 C5.30809437,14.1380878 5.19769777,14.3108825 5.16409881,14.4412785 L4.02413391,19.004338 C3.95533603,19.2763296 4.03613354,19.5659207 4.23452743,19.7635146 L4.23532741,19.7643145 L4.23612738,19.7651145 C4.43452127,19.9635084 4.72251241,20.0443059 4.99530401,19.976308 L9.55836349,18.8347432 C9.68875947,18.8011442 9.86235413,18.6907476 9.92715213,18.6259496 C9.92795211,18.6251496 9.93035203,18.6235497 9.93035203,18.6235497 L19.057271,9.49823069 C19.6652523,8.88944943 20.0004419,8.08147431 19.999642,7.22070082 C19.999642,6.3607273 19.6652523,5.55195221 19.057271,4.94317096 L19.056471,4.94317096 Z M13.9286289,7.78228353 L16.2189584,10.072613 L9.36476945,16.9268019 L7.07443998,14.6364725 L13.9286289,7.78228353 Z M5.90007614,18.1003658 L6.37606149,16.2012243 L7.80001764,17.6259804 L5.90007614,18.1003658 Z M17.9269058,6.0751361 C18.538087,6.68711725 18.538087,7.75428439 17.9269058,8.36626554 L17.3517235,8.94224781 L15.0589941,6.65031839 L15.6357763,6.0751361 C16.2477575,5.46395492 17.3149246,5.46315494 17.9269058,6.0751361 Z" id="path-1"></path>
    </defs>
    <g id="Atoms-/-Icons-/-Edit" stroke="none" stroke-width="1" fill="none" fill-rule="evenodd">
        <mask id="mask-2" fill="white">
            <use xlink:href="#path-1"></use>
        </mask>
        <use id="↳-🎨Color" fill="#497B7B" xlink:href="#path-1"></use>
    </g>
</svg>