<?xml version="1.0" encoding="UTF-8"?>
<svg width="24px" height="24px" viewBox="0 0 24 24" version="1.1" xmlns="http://www.w3.org/2000/svg" xmlns:xlink="http://www.w3.org/1999/xlink">
    <!-- Generator: Sketch 64 (93537) - https://sketch.com -->
    <title>Atoms / Icons / Pause</title>
    <desc>Created with Sketch.</desc>
    <g id="Atoms-/-Icons-/-Pause" stroke="none" stroke-width="1" fill="none" fill-rule="evenodd">
        <path d="M11.2,8.8 L11.2,15.2 L9.6,15.2 L9.6,8.8 L11.2,8.8 Z M14.4,8.8 L14.4,15.2 L12.8,15.2 L12.8,8.8 L14.4,8.8 Z M12,4 C7.5888,4 4,7.5888 4,12 C4,16.412 7.5888,20 12,20 C16.4112,20 20,16.412 20,12 C20,7.5888 16.4112,4 12,4 Z M12,18.4 C8.4712,18.4 5.6,15.5288 5.6,12 C5.6,8.4712 8.4712,5.6 12,5.6 C15.5288,5.6 18.4,8.4712 18.4,12 C18.4,15.5288 15.5288,18.4 12,18.4 Z" id="Color" fill="#497B7B"></path>
    </g>
</svg>