<?xml version="1.0" encoding="UTF-8"?>
<svg width="24px" height="24px" viewBox="0 0 24 24" version="1.1" xmlns="http://www.w3.org/2000/svg" xmlns:xlink="http://www.w3.org/1999/xlink">
    <!-- Generator: Sketch 64 (93537) - https://sketch.com -->
    <title>Atoms / Icons / Play</title>
    <desc>Created with Sketch.</desc>
    <g id="Atoms-/-Icons-/-Play" stroke="none" stroke-width="1" fill="none" fill-rule="evenodd">
        <path d="M12,4 C16.4112,4 20,7.5888 20,12 C20,16.412 16.4112,20 12,20 C7.5888,20 4,16.412 4,12 C4,7.5888 7.5888,4 12,4 Z M12,5.6 C8.4712,5.6 5.6,8.4712 5.6,12 C5.6,15.5288 8.4712,18.4 12,18.4 C15.5288,18.4 18.4,15.5288 18.4,12 C18.4,8.4712 15.5288,5.6 12,5.6 Z M10.4,8.8 L15.2,12 L10.4,15.2 L10.4,8.8 Z" id="Color" fill="#497B7B"></path>
    </g>
</svg>