<?xml version="1.0" encoding="UTF-8"?>
<svg width="24px" height="24px" viewBox="0 0 24 24" version="1.1" xmlns="http://www.w3.org/2000/svg" xmlns:xlink="http://www.w3.org/1999/xlink">
    <!-- Generator: Sketch 64 (93537) - https://sketch.com -->
    <title>Atoms / Icons / Search</title>
    <desc>Created with Sketch.</desc>
    <defs>
        <path d="M20,18.8519815 L15.6214543,14.4734358 C16.5056071,13.3400315 16.990308,11.9557518 16.990308,10.495154 C16.990308,8.76013599 16.3140001,7.12904044 15.0872279,5.90308012 C13.8612676,4.67549602 12.230172,4 10.495154,4 C8.76013599,4 7.12904044,4.67549602 5.90308012,5.90308012 C4.67630791,7.12904044 4,8.76013599 4,10.495154 C4,12.230172 4.67630791,13.8612676 5.90308012,15.0872279 C7.12904044,16.314812 8.76013599,16.990308 10.495154,16.990308 C11.9557518,16.990308 13.3400315,16.506419 14.4734358,15.6214543 L18.8519815,19.9991881 L20,18.8519815 Z M10.495154,15.3665195 C9.19368752,15.3665195 7.97097478,14.8598975 7.05109859,13.9400213 C6.13041051,13.0201451 5.6237885,11.7966205 5.6237885,10.495154 C5.6237885,9.19449942 6.13041051,7.97097478 7.05109859,7.05109859 C7.97097478,6.13041051 9.19368752,5.6237885 10.495154,5.6237885 C11.7966205,5.6237885 13.0193332,6.13041051 13.9392094,7.05109859 C14.8598975,7.97097478 15.3665195,9.19449942 15.3665195,10.495154 C15.3665195,11.7966205 14.8598975,13.0201451 13.9392094,13.9400213 C13.0193332,14.8598975 11.7966205,15.3665195 10.495154,15.3665195 Z" id="path-1"></path>
    </defs>
    <g id="Atoms-/-Icons-/-Search" stroke="none" stroke-width="1" fill="none" fill-rule="evenodd">
        <mask id="mask-2" fill="white">
            <use xlink:href="#path-1"></use>
        </mask>
        <use id="↳-🎨Color" fill="#497B7B" xlink:href="#path-1"></use>
    </g>
</svg>