<?xml version="1.0" encoding="UTF-8"?>
<svg width="134px" height="36px" viewBox="0 0 134 36" version="1.1" xmlns="http://www.w3.org/2000/svg" xmlns:xlink="http://www.w3.org/1999/xlink">
    <!-- Generator: Sketch 64 (93537) - https://sketch.com -->
    <title>Tegnebræt 17 kopi 29</title>
    <desc>Created with Sketch.</desc>
    <g id="Designsytem" stroke="none" stroke-width="1" fill="none" fill-rule="evenodd">
        <g id="Taxis-Design-System--/-Brand" transform="translate(-986.000000, -686.000000)" fill-rule="nonzero">
            <g id="Tegnebræt-17-kopi-29" transform="translate(986.000000, 686.000000)">
                <rect id="Rectangle_265" fill="#FDA472" x="0.193548387" y="0.157231961" width="8.14746544" height="8.09590451"></rect>
                <path d="M13.5115207,7.63037458 L13.5115207,7.63037458 C14.7997151,7.63037458 16.0351484,8.13886932 16.9460394,9.04399576 C17.8569304,9.94912221 18.3686636,11.1767371 18.3686636,12.4567792 L18.3686636,12.4567792 C18.3686636,15.1223289 16.1940467,17.2831838 13.5115207,17.2831838 L13.5115207,17.2831838 C10.8289948,17.2831838 8.65437788,15.1223289 8.65437788,12.4567792 L8.65437788,12.4567792 C8.65437788,9.79122953 10.8289948,7.63037458 13.5115207,7.63037458 Z" id="Rectangle_266" fill="#497B7B"></path>
                <path d="M31.330657,13.205351 L28.7096774,13.205351 L28.7096774,12.3658684 L31.330657,12.3658684 L31.330657,6.35052853 L40.1636104,4.20518421 L40.1636104,12.3658684 L46.3426038,12.3658684 L46.3426038,13.205351 L40.1636104,13.205351 L40.1636104,28.9232818 C40.1636104,31.6739673 40.5923569,33.1663807 42.254962,33.1663807 C44.5364365,33.1663807 45.962358,31.1143123 46.3911045,27.9429337 L47.1981567,28.0362095 C46.7713502,31.6739673 45.2018665,35.0318975 39.4031189,35.0318975 C34.6985479,35.0318975 31.3228969,33.6803496 31.3228969,27.8972476 L31.330657,13.205351 Z" id="Path" fill="#FFFFFF"></path>
                <path d="M60.0983103,23.5011681 L60.0983103,19.8747537 C60.0983103,13.8960705 59.5779712,12.3413438 57.6823121,12.3413438 C56.8292655,12.3413438 55.4558798,12.7257014 55.4558798,14.2246963 C55.4725696,14.6928151 55.5687041,15.1547733 55.7402287,15.5910877 L56.9240485,15.5910877 C57.1921247,16.2634836 57.323607,16.981942 57.3109177,17.7050548 C57.3109177,19.9189548 55.5100415,21.3775921 53.1404677,21.3775921 C50.2021961,21.3775921 49.0648006,19.7767425 49.0648006,17.4705966 C49.0570632,13.5194 52.52728,11.6783268 58.9609148,11.6783268 C66.402344,11.6783268 68.9131251,13.7500146 68.9131251,20.5781282 L68.9131251,30.1351811 C68.9131251,32.0665783 69.4818228,32.5835393 70.2884451,32.5835393 C71.1414917,32.5835393 71.9461797,31.6899078 72.1841042,27.7348676 L72.8940092,27.7809905 C72.658019,33.4310479 70.9035672,35.0318975 66.8279001,35.0318975 C62.9901576,35.0318975 60.8565739,33.8557631 60.2878762,31.5476955 C59.5296126,33.8077184 58.1600956,35.0318975 54.8388235,35.0318975 C51.5175513,35.0318975 47.8248848,34.0440984 47.8248848,29.3357172 C47.8248848,24.5792913 51.9489105,23.4973245 58.7249246,23.4973245 L60.0983103,23.5011681 Z M60.0983103,28.6323427 L60.0983103,24.2545091 L59.7675371,24.2545091 C57.7770951,24.2545091 56.8292655,25.6670234 56.8292655,28.5381751 L56.8292655,29.2915161 C56.8292655,32.6815505 57.161973,33.1523886 58.0614439,33.1523886 C58.9609148,33.1523886 60.0983103,31.6457067 60.0983103,28.6323427 Z" id="Shape" fill="#FFFFFF"></path>
                <polygon id="Path" fill="#FFFFFF" points="94.3688647 13.1488822 90.9932023 13.1488822 90.9932023 12.3010887 97.9779912 12.3010887 97.9779912 13.1488822 95.5400129 13.1488822 89.4374124 21.8229054 97.0919755 33.8727231 99.5299539 33.8727231 99.5299539 34.7205166 83.866804 34.7205166 83.866804 33.8727231 87.1946254 33.8727231 82.0373634 25.3947882 76.6925647 33.8727231 79.7869219 33.8727231 79.7869219 34.7205166 72.4270594 34.7205166 72.4270594 33.8727231 75.5214165 33.8727231 81.474753 24.4527954 74.3502684 13.1488822 71.640553 13.1488822 71.640553 12.3010887 87.4854988 12.3010887 87.4854988 13.1488822 84.1940366 13.1488822 88.8365292 20.8270845"></polygon>
                <polygon id="Path" fill="#FFFFFF" points="111.32101 12.3010887 111.32101 33.8727231 113.9447 33.8727231 113.9447 34.7205166 100.030724 34.7205166 100.030724 33.8727231 102.606608 33.8727231 102.606608 13.1488822 99.843318 13.1488822 99.843318 12.3010887"></polygon>
                <path d="M107.120363,0.157231961 C110.019855,0.157231961 111.751152,1.61034303 111.751152,4.47253149 C111.751152,6.96139102 110.393983,8.87589835 107.026831,8.87589835 C103.239739,8.87589835 102.35023,6.48276419 102.35023,4.51273614 C102.35023,2.22107087 103.613867,0.157231961 107.120363,0.157231961 Z" id="Path" fill="#FFFFFF"></path>
                <path d="M116.138249,26.6384002 L116.700733,26.6384002 C118.436017,32.3623709 121.292443,34.0035361 125.138,34.0035361 C128.606654,34.0035361 129.921031,32.7377132 129.921031,30.9548371 C129.921031,28.848324 127.625176,28.373401 124.062775,27.3890848 C120.312878,26.3568934 116.140162,24.8995693 116.140162,19.6945668 C116.140162,14.907037 119.421321,11.7645024 124.389934,11.7645024 C126.452377,11.7645024 127.858588,12.2815556 129.125135,12.8445691 C129.687619,13.0782006 129.875114,13.2275715 130.437598,13.2275715 C131.139747,13.2275715 131.46882,12.8445691 132.077222,11.6783268 L132.593789,11.6783268 L132.593789,18.8462166 L132.031304,18.8462166 C130.343851,14.5297796 127.952336,12.7469035 124.625259,12.7469035 C121.531595,12.7469035 120.265048,14.0127264 120.265048,15.4681355 C120.265048,17.6263539 123.07747,18.1491522 126.171135,18.9860124 C129.875114,19.9722436 134,21.475528 134,27.0099125 C134,32.3585409 130.531346,35.0318975 125.233661,35.0318975 C122.983723,35.0318975 121.390017,34.5627196 119.608816,33.672239 C119.343259,33.481978 119.039801,33.3513354 118.719172,33.2892367 C118.108858,33.2892367 117.452626,33.7105393 116.702647,35.0242375 L116.140162,35.0242375 L116.138249,26.6384002 Z" id="Path" fill="#FFFFFF"></path>
            </g>
        </g>
    </g>
</svg>