<?xml version="1.0" encoding="UTF-8"?>
<svg width="24px" height="24px" viewBox="0 0 24 24" version="1.1" xmlns="http://www.w3.org/2000/svg" xmlns:xlink="http://www.w3.org/1999/xlink">
    <!-- Generator: Sketch 64 (93537) - https://sketch.com -->
    <title>Atoms / Icons / Filter</title>
    <desc>Created with Sketch.</desc>
    <g id="Atoms-/-Icons-/-Filter" stroke="none" stroke-width="1" fill="none" fill-rule="evenodd">
        <path d="M19.3333333,10.6666667 C19.702,10.6666667 20,10.9653333 20,11.3333333 L20,19.3333333 C20,19.702 19.702,20 19.3333333,20 L12.6666667,20 C12.298,20 12,19.7013333 12,19.3333333 L12,11.3333333 C12,10.9653333 12.298,10.6666667 12.6666667,10.6666667 L19.3333333,10.6666667 Z M18.6666667,12 L13.3333333,12 L13.3333333,18.6666667 L18.6666667,18.6666667 L18.6666667,12 Z M18,16.6666667 L18,18 L14,18 L14,16.6666667 L18,16.6666667 Z M13.3333333,4 C14.0693333,4 14.6666667,4.59866667 14.6666667,5.33333333 L14.6666667,5.33333333 L14.6666667,7.33333333 C14.6666667,7.50466667 14.6013333,7.67466667 14.4713333,7.80466667 L14.4713333,7.80466667 L11.3333333,10.9426667 L11.3333333,14 C11.3333333,14.1773333 11.2633333,14.3466667 11.138,14.4713333 L11.138,14.4713333 L8.47133333,17.138 C8.344,17.2653333 8.17333333,17.3333333 8,17.3333333 C7.914,17.3333333 7.82733333,17.3173333 7.74466667,17.2826667 C7.496,17.1793333 7.33333333,16.936 7.33333333,16.6666667 L7.33333333,16.6666667 L7.33333333,10.9433333 L4.19533333,7.80466667 C4.06533333,7.67466667 4,7.504 4,7.33333333 L4,7.33333333 L4,5.33333333 C4,4.59866667 4.59733333,4 5.33333333,4 L5.33333333,4 Z M18,14.6666667 L18,16 L14,16 L14,14.6666667 L18,14.6666667 Z M13.3333333,5.33333333 L5.33333333,5.33333333 L5.33333333,7.05733333 L8.47133333,10.1953333 C8.59666667,10.32 8.66666667,10.49 8.66666667,10.6666667 L8.66666667,10.6666667 L8.66666667,15.0573333 L10,13.724 L10,10.6666667 C10,10.49 10.07,10.3206667 10.1953333,10.1953333 L10.1953333,10.1953333 L13.3333333,7.05733333 L13.3333333,5.33333333 Z M18,12.6666667 L18,14 L15.3333333,14 L15.3333333,12.6666667 L18,12.6666667 Z" id="Combined-Shape" fill="#497B7B"></path>
    </g>
</svg>