<?xml version="1.0" encoding="UTF-8"?>
<svg width="136px" height="36px" viewBox="0 0 136 36" version="1.1" xmlns="http://www.w3.org/2000/svg" xmlns:xlink="http://www.w3.org/1999/xlink">
    <!-- Generator: Sketch 64 (93537) - https://sketch.com -->
    <title>Tegnebræt 17 kopi 34</title>
    <desc>Created with Sketch.</desc>
    <g id="Designsytem" stroke="none" stroke-width="1" fill="none" fill-rule="evenodd">
        <g id="Taxis-Design-System--/-Brand" transform="translate(-497.000000, -640.000000)" fill="#FFFFFF">
            <g id="Tegnebræt-17-kopi-34" transform="translate(497.000000, 640.000000)">
                <rect id="Rectangle_265" x="0" y="0.0233549994" width="8.20689655" height="8.17424978"></rect>
                <path d="M13.347931,7.61372979 L13.347931,7.61372979 C14.6435288,7.61372979 15.8860623,8.12635666 16.8021883,9.03883832 C17.7183143,9.95131999 18.2329885,11.1889107 18.2329885,12.4793547 L18.2329885,12.4793547 C18.2329885,15.1665651 16.0458738,17.3449795 13.347931,17.3449795 L13.347931,17.3449795 C10.6499883,17.3449795 8.46287356,15.1665651 8.46287356,12.4793547 L8.46287356,12.4793547 C8.46287356,9.79214425 10.6499883,7.61372979 13.347931,7.61372979 Z" id="Rectangle_266"></path>
                <path d="M31.5125287,13.0165196 L28.8804598,13.0165196 L28.8804598,12.1582234 L31.5125287,12.1582234 L31.5125287,6.00807359 L40.4170115,3.8146499 L40.4170115,12.1582234 L46.6405747,12.1582234 L46.6405747,13.0165196 L40.4170115,13.0165196 L40.4170115,29.0867055 C40.4170115,31.8990366 40.8488506,33.4248966 42.5234483,33.4248966 C44.8213793,33.4248966 46.2575862,31.3268392 46.6894253,28.0843867 L47.5022989,28.179753 C47.0724138,31.8990366 45.4916092,35.3322215 39.6510345,35.3322215 C34.9125287,35.3322215 31.5125287,33.9503841 31.5125287,28.0376767 L31.5125287,13.0165196 Z" id="Path" fill-rule="nonzero"></path>
                <path d="M60.86,23.6508294 L60.86,19.9782557 C60.86,13.9234721 60.3324138,12.3489559 58.4174713,12.3489559 C57.5557471,12.3489559 56.1683908,12.7382059 56.1683908,14.2562809 C56.1852504,14.7303582 56.2823627,15.1981965 56.4556322,15.6400646 L57.6436782,15.6400646 C57.9144813,16.3210192 58.0473012,17.0486225 58.0344828,17.7809395 C58.0344828,20.0230195 56.2152874,21.5002232 53.8216092,21.5002232 C50.8534483,21.5002232 49.7044828,19.878997 49.7044828,17.543497 C49.7044828,13.5381146 53.2002299,11.6774997 59.7110345,11.6774997 C67.2183908,11.6774997 69.7586207,13.7794496 69.7586207,20.6944757 L69.7586207,30.3731767 C69.7586207,32.3291579 70.3331034,32.8526991 71.145977,32.8526991 C72.0077011,32.8526991 72.8225287,31.9476929 73.0609195,27.9423105 L73.778046,27.9890205 C73.5396552,33.7109953 71.7673563,35.3322215 67.6521839,35.3322215 C63.7734483,35.3322215 61.6201149,34.1411166 61.0456322,31.8036704 C60.2796552,34.0924603 58.8962069,35.3322215 55.5391954,35.3322215 C52.1821839,35.3322215 48.4597701,34.3318491 48.4597701,29.5635367 C48.4597701,24.7465681 52.6257471,23.6508294 59.4706897,23.6508294 L60.86,23.6508294 Z M60.86,28.8473167 L60.86,24.4137593 L60.523908,24.4137593 C58.5132184,24.4137593 57.5557471,25.844253 57.5557471,28.7519505 L57.5557471,29.5148804 C57.5557471,32.9480654 57.8918391,33.4248966 58.8004598,33.4248966 C59.7090805,33.4248966 60.86,31.8990366 60.86,28.8473167 Z" id="Shape" fill-rule="nonzero"></path>
                <polygon id="Path" fill-rule="nonzero" points="95.5673563 13.0165196 92.1204598 13.0165196 92.1204598 12.1582234 99.2526437 12.1582234 99.2526437 13.0165196 96.7632184 13.0165196 90.5396552 21.7979994 98.344023 34.0048791 100.827586 34.0048791 100.827586 34.8631753 84.8436782 34.8631753 84.8436782 34.0048791 88.2436782 34.0048791 82.9678161 25.4219168 77.5102299 34.0048791 80.6698851 34.0048791 80.6698851 34.8631753 73.1625287 34.8631753 73.1625287 34.0048791 76.3221839 34.0048791 82.4031034 24.4682543 75.1263218 13.0243046 72.3496552 13.0243046 72.3496552 12.1582234 88.5309195 12.1582234 88.5309195 13.0165196 85.1797701 13.0165196 89.9182759 20.7898419"></polygon>
                <polygon id="Path" fill-rule="nonzero" points="112.848736 12.1582234 112.848736 33.9970941 115.529655 33.9970941 115.529655 34.8553903 101.312184 34.8553903 101.312184 33.9970941 103.944253 33.9970941 103.944253 13.0165196 101.12069 13.0165196 101.12069 12.1582234"></polygon>
                <path d="M108.540115,0 C111.508276,0 113.280575,1.47720371 113.280575,4.38684738 C113.280575,6.91697231 111.891264,8.86322226 108.444368,8.86322226 C104.567586,8.86322226 103.657011,6.43040983 103.657011,4.42771863 C103.657011,2.09805744 104.950575,0 108.540115,0 Z" id="Path" fill-rule="nonzero"></path>
                <path d="M117.587241,26.7979155 L118.161724,26.7979155 C119.934023,32.6152566 122.851379,34.2831928 126.778966,34.2831928 C130.321609,34.2831928 131.664023,32.9967216 131.664023,31.1847629 C131.664023,29.043888 129.319195,28.561218 125.680805,27.5608455 C121.85092,26.5118168 117.589195,25.0307206 117.589195,19.7408132 C117.589195,14.8751883 120.940345,11.6813922 126.014943,11.6813922 C128.121379,11.6813922 129.557586,12.2068797 130.851149,12.7790772 C131.425632,13.0165196 131.617126,13.1683271 132.191609,13.1683271 C132.908736,13.1683271 133.244828,12.7790772 133.866207,11.5938109 L134.393793,11.5938109 L134.393793,18.8786245 L133.81931,18.8786245 C132.091954,14.4956696 129.651379,12.6837109 126.253333,12.6837109 C123.093678,12.6837109 121.800115,13.9701821 121.800115,15.4493321 C121.800115,17.6427558 124.672529,18.174082 127.832184,19.0245932 C131.615172,20.026912 135.828046,21.5547182 135.828046,27.1793805 C135.828046,32.6152566 132.285402,35.3322215 126.874713,35.3322215 C124.576782,35.3322215 122.94908,34.8553903 121.129885,33.9503841 C120.858664,33.7570195 120.548732,33.6242458 120.221264,33.5611341 C119.597931,33.5611341 118.927701,33.9893091 118.161724,35.3244365 L117.587241,35.3244365 L117.587241,26.7979155 Z" id="Path" fill-rule="nonzero"></path>
            </g>
        </g>
    </g>
</svg>